<svg xmlns="http://www.w3.org/2000/svg" version="1.1" xmlns:xlink="http://www.w3.org/1999/xlink" xmlns:svgjs="http://svgjs.dev/svgjs" width="2000" height="1500" viewBox="0 0 2000 1500"><rect width="2000" height="1500" fill="#dd1c1c"></rect><g transform="matrix(0.75,0,0,0.75,248.27028223511275,124.47804878048782)"><svg viewBox="0 0 394 328" data-background-color="#dd1c1c" preserveAspectRatio="xMidYMid meet" height="1664" width="2000" xmlns="http://www.w3.org/2000/svg" xmlns:xlink="http://www.w3.org/1999/xlink"><g id="tight-bounds" transform="matrix(1,0,0,1,0.46004658141848154,0.39999999999997726)"><svg viewBox="0 0 393.0775134189715 327.2" height="327.2" width="393.0775134189715"><g><svg viewBox="0 0 393.0775134189715 327.2" height="327.2" width="393.0775134189715"><g><svg viewBox="0 0 393.0775134189715 327.2" height="327.2" width="393.0775134189715"><g id="textblocktransform"><svg viewBox="0 0 393.0775134189715 327.2" height="327.2" width="393.0775134189715" id="textblock"><g><svg viewBox="0 0 393.0775134189715 327.2" height="327.2" width="393.0775134189715"><g transform="matrix(1,0,0,1,0,0)"><svg width="393.0775134189715" viewBox="12.55431 -17.47328 21.350250000000003 17.772053583022387" height="327.2" data-palette-color="#f7ccec"><path d="M18.31-17.469v0c-0.042 0.653-0.071 1.416-0.087 2.289-0.023 0.867-0.042 1.76-0.058 2.68-0.009 0.927-0.012 1.81-0.008 2.65 0.011 0.84 0.019 1.567 0.024 2.18 0.011 0.62 0.024 1.05 0.036 1.29v0c0.038 0.693 0.16 1.18 0.365 1.461 0.206 0.281 0.532 0.422 0.979 0.423v0c0.313 0.001 0.65-0.055 1.011-0.167 0.354-0.112 0.821-0.344 1.402-0.695v0l0.556 1.121c-0.468 0.392-0.969 0.784-1.503 1.176-0.534 0.385-1.115 0.703-1.743 0.955-0.627 0.251-1.321 0.376-2.081 0.373v0c-0.433-0.001-0.853-0.093-1.259-0.273-0.413-0.175-0.745-0.482-0.998-0.923-0.252-0.441-0.377-1.034-0.374-1.781v0c0 0.02 0.007-0.147 0.021-0.5 0.008-0.353 0.019-0.827 0.034-1.42 0.008-0.587 0.024-1.207 0.046-1.86 0.022-0.653 0.037-1.27 0.045-1.85 0.008-0.573 0.02-1.043 0.035-1.41 0.008-0.367 0.012-0.53 0.011-0.49v0c-0.019-0.207-0.136-0.384-0.348-0.531-0.213-0.154-0.459-0.285-0.739-0.392-0.28-0.114-0.533-0.218-0.759-0.312-0.22-0.094-0.339-0.198-0.359-0.311v0c0.447-0.072 0.83-0.144 1.15-0.217 0.314-0.079 0.657-0.165 1.031-0.257v0c0.415-0.539 0.786-1.044 1.115-1.517 0.328-0.479 0.706-1.045 1.135-1.696v0c0.173 0.001 0.39 0.001 0.65 0.002 0.26 0.001 0.483 0.001 0.67 0.002zM12.559-13.786l9.6-0.002-0.006 2.05-9.599-0.588zM32.055-13.963v0c-0.324 0.569-0.684 1.243-1.08 2.021-0.4 0.769-0.808 1.564-1.225 2.384-0.414 0.829-0.803 1.622-1.167 2.379-0.358 0.76-0.669 1.417-0.933 1.971-0.261 0.563-0.438 0.954-0.532 1.176v0c-0.269 0.64-0.373 1.131-0.311 1.473 0.062 0.342 0.294 0.612 0.695 0.809v0c0.281 0.138 0.609 0.235 0.982 0.292 0.367 0.054 0.889 0.05 1.565-0.012v0l0.009 1.252c-0.592 0.148-1.214 0.281-1.866 0.399-0.649 0.112-1.311 0.144-1.985 0.096-0.674-0.048-1.352-0.24-2.035-0.575v0c-0.389-0.191-0.727-0.457-1.012-0.797-0.295-0.338-0.459-0.76-0.493-1.266-0.034-0.507 0.114-1.095 0.443-1.766v0c-0.009 0.018 0.071-0.129 0.238-0.44 0.162-0.314 0.379-0.735 0.652-1.262 0.264-0.524 0.549-1.075 0.855-1.652 0.306-0.578 0.589-1.126 0.851-1.643 0.258-0.512 0.474-0.929 0.648-1.253 0.167-0.326 0.242-0.471 0.224-0.436v0c0.073-0.194 0.046-0.404-0.081-0.63-0.124-0.232-0.288-0.457-0.492-0.676-0.201-0.225-0.383-0.429-0.546-0.613-0.156-0.181-0.219-0.326-0.187-0.437v0c0.433 0.131 0.81 0.234 1.13 0.309 0.317 0.066 0.663 0.14 1.039 0.22v0c0.609-0.303 1.164-0.595 1.666-0.876 0.505-0.287 1.092-0.63 1.763-1.028v0c0.156 0.076 0.35 0.172 0.583 0.286 0.233 0.114 0.434 0.213 0.602 0.295zM25.272-13.169l8.633 4.201-0.903 1.84-8.373-4.73z" opacity="1" transform="matrix(1,0,0,1,0,0)" fill="#f7ccec" class="wordmark-text-0" data-fill-palette-color="primary" id="text-0"></path></svg></g></svg></g></svg></g></svg></g><g></g></svg></g><defs></defs></svg><rect width="393.0775134189715" height="327.2" fill="none" stroke="none" visibility="hidden"></rect></g></svg></g></svg>